{"title":"Wiener Dog Nationals 2013 REPACK DVDRip XviD-AQOS","uid":8669909,"size":737867527,"categoryP":"video","categoryS":"movies","magnet":"?xt=urn:btih:6e5dfd1f7f78b6cb4f77f68357bf3d3e34becf55&amp;dn=Wiener+Dog+Nationals+2013+REPACK+DVDRip+XviD-AQOS&amp;tr=udp%3A%2F%2Ftracker.openbittorrent.com%3A80&amp;tr=udp%3A%2F%2Fopen.demonii.com%3A1337&amp;tr=udp%3A%2F%2Ftracker.coppersurfer.tk%3A6969&amp;tr=udp%3A%2F%2Fexodus.desync.com%3A6969","seeders":2,"leechers":0,"uploader":"ValidusVyto","files":-1,"time":1373479304,"description":"_______ Visit us at our Semi Public Bittorrent Community ________\n      &lt;a href=&quot;\nhttp://p2pdl.com&quot; rel=&quot;nofollow&quot; target=&quot;_NEW&quot;&gt;\nhttp://p2pdl.com&lt;/a&gt;  _____________________________ &lt;a href=&quot; http://p2pdl.com&quot; rel=&quot;nofollow&quot; target=&quot;_NEW&quot;&gt; http://p2pdl.com&lt;/a&gt;\n\n\nWiener Dog Nationals 2013 REPACK DVDRip XviD-AQOS\n\nPlot:\nA family adopts a runt of a dachshund from a shelter. Only time will tell if little &quot;Shelly&quot; and her new family are up for the challenges of entering the nation's greatest wiener dog race, Wienerschnitzel's &quot;Wiener Dog Nationals.&quot; One Nation, one race, one wiener.\n &lt;a href=&quot;\nhttp://www.imdb.com/title/tt1535975/&quot; rel=&quot;nofollow&quot; target=&quot;_NEW&quot;&gt;\nhttp://www.imdb.com/title/tt1535975/&lt;/a&gt;\n\n\nGeneral\nFormat                                   : AVI\nFormat/Info                              : Audio Video Interleave\nFormat profile                           : OpenDML\nFormat settings                          : rec\nFile size                                : 697 MiB\nDuration                                 : 1h 22mn\nOverall bit rate mode                    : Variable\nOverall bit rate                         : 1 188 Kbps\nWriting application                      : AVI-Mux GUI 1.17.8.3, Feb 16 201019:42:50\n\nVideo\nID                                       : 0\nFormat                                   : MPEG-4 Visual\nFormat profile                           : Advanced Simple@L5\nFormat settings, BVOP                    : 2\nFormat settings, QPel                    : No\nFormat settings, GMC                     : No warppoints\nFormat settings, Matrix                  : Default (H.263)\nCodec ID                                 : XVID\nCodec ID/Hint                            : XviD\nDuration                                 : 1h 22mn\nBit rate                                 : 1 062 Kbps\nWidth                                    : 720 pixels\nHeight                                   : 400 pixels\nDisplay aspect ratio                     : 16:9\nFrame rate                               : 23.976 fps\nColor space                              : YUV\nChroma subsampling                       : 4:2:0\nBit depth                                : 8 bits\nScan type                                : Progressive\nCompression mode                         : Lossy\nBits/(Pixel*Frame)                       : 0.154\nStream size                              : 623 MiB (89%)\nWriting library                          : XviD 1.2.1 (UTC 2008-12-04)\n\nAudio\nID                                       : 1\nFormat                                   : MPEG Audio\nFormat version                           : Version 1\nFormat profile                           : Layer 3\nMode                                     : Joint stereo\nMode extension                           : MS Stereo\nCodec ID                                 : 55\nCodec ID/Hint                            : MP3\nDuration                                 : 1h 22mn\nBit rate mode                            : Variable\nBit rate                                 : 117 Kbps\nNominal bit rate                         : 128 Kbps\nChannel(s)                               : 2 channels\nSampling rate                            : 48.0 KHz\nCompression mode                         : Lossy\nStream size                              : 68.6 MiB (10%)\nAlignment                                : Aligned on interleaves\nInterleave, duration                     : 24 ms (0.58 video frame)\nInterleave, preload duration             : 551 ms\nTitle                                    : VTS_01_1 T80 3_2ch 448Kbps DELAY 0ms\nWriting library                          : LAME3.99r\n\n\nSOURCE.......: DVD5  (THaNKS)\nENCODER......: &gt;&lt;:wink)0&gt;\n &lt;a href=&quot;\nhttp://s6.postimg.org/v15oqfr29/image.png&quot; rel=&quot;nofollow&quot; target=&quot;_NEW&quot;&gt;\nhttp://s6.postimg.org/v15oqfr29/image.png&lt;/a&gt; &lt;a href=&quot;\nhttp://s6.postimg.org/jdbmvw1xd/image.png&quot; rel=&quot;nofollow&quot; target=&quot;_NEW&quot;&gt;\nhttp://s6.postimg.org/jdbmvw1xd/image.png&lt;/a&gt; &lt;a href=&quot;\nhttp://s6.postimg.org/p2rvg783l/image.png&quot; rel=&quot;nofollow&quot; target=&quot;_NEW&quot;&gt;\nhttp://s6.postimg.org/p2rvg783l/image.png&lt;/a&gt; &lt;a href=&quot;\nhttp://s6.postimg.org/ggolvlw3l/image.png&quot; rel=&quot;nofollow&quot; target=&quot;_NEW&quot;&gt;\nhttp://s6.postimg.org/ggolvlw3l/image.png&lt;/a&gt;\n\nRelease Notes:\n\nREPACK: OOS Fixed.. Apologies Everyone..\n\nEncoder Notes:Looking For Early Access To Anything You Can Provide DVDScr, R5, DVDR, BluRay, Direct\nAudio, Music Releases and Seedboxes. We require dedicated servers, so as to do more \nand fast releases of movies.\nIf You Got anything to offer please contact us at &quot;&lt;a class=&quot;__cf_email__&quot; href=&quot;/cdn-cgi/l/email-protection&quot; data-cfemail=&quot;cbbbb9ac8ba3beb8a3e5a8a4a6&quot;&gt;[email&amp;#160;protected]&lt;/a&gt;&lt;script cf-hash='f9e31' type=&quot;text/javascript&quot;&gt;\n/* &lt;![CDATA[ */!function(){try{var t=&quot;currentScript&quot;in document?document.currentScript:function(){for(var t=document.getElementsByTagName(&quot;script&quot;),e=t.length;e--;)if(t[e].getAttribute(&quot;cf-hash&quot;))return t[e]}();if(t&amp;&amp;t.previousSibling){var e,r,n,i,c=t.previousSibling,a=c.getAttribute(&quot;data-cfemail&quot;);if(a){for(e=&quot;&quot;,r=parseInt(a.substr(0,2),16),n=2;a.length-n;n+=2)i=parseInt(a.substr(n,2),16)^r,e+=String.fromCharCode(i);e=document.createTextNode(e),c.parentNode.replaceChild(e,c)}}}catch(u){}}();/* ]]&gt; */&lt;/script&gt;&quot;.\n\n\nFace book Fan Page:       &lt;a href=&quot;\nhttp://fbl.me/BC&quot; rel=&quot;nofollow&quot; target=&quot;_NEW&quot;&gt;\nhttp://fbl.me/BC&lt;/a&gt;","torrent":{"xt":"urn:btih:6e5dfd1f7f78b6cb4f77f68357bf3d3e34becf55","amp;dn":"Wiener+Dog+Nationals+2013+REPACK+DVDRip+XviD-AQOS","amp;tr":["udp%3A%2F%2Ftracker.openbittorrent.com%3A80","udp%3A%2F%2Fopen.demonii.com%3A1337","udp%3A%2F%2Ftracker.coppersurfer.tk%3A6969","udp%3A%2F%2Fexodus.desync.com%3A6969"],"infoHash":"6e5dfd1f7f78b6cb4f77f68357bf3d3e34becf55","infoHashBuffer":{"type":"Buffer","data":[110,93,253,31,127,120,182,203,79,119,246,131,87,191,61,62,52,190,207,85]},"announce":[],"urlList":[]}}